%TF.GenerationSoftware,KiCad,Pcbnew,7.0.8*%
%TF.CreationDate,2023-11-05T18:16:56+01:00*%
%TF.ProjectId,battery-protection,62617474-6572-4792-9d70-726f74656374,2*%
%TF.SameCoordinates,Original*%
%TF.FileFunction,Profile,NP*%
%FSLAX46Y46*%
G04 Gerber Fmt 4.6, Leading zero omitted, Abs format (unit mm)*
G04 Created by KiCad (PCBNEW 7.0.8) date 2023-11-05 18:16:56*
%MOMM*%
%LPD*%
G01*
G04 APERTURE LIST*
%TA.AperFunction,Profile*%
%ADD10C,0.100000*%
%TD*%
G04 APERTURE END LIST*
D10*
X160000000Y-100000000D02*
G75*
G03*
X160500000Y-99500000I0J500000D01*
G01*
X167000000Y-95500000D02*
G75*
G03*
X166500000Y-95000000I-500000J0D01*
G01*
X139000000Y-87500000D02*
X153000000Y-87500000D01*
X166500000Y-99000000D02*
X161000000Y-99000000D01*
X146000000Y-100000000D02*
X132000000Y-100000000D01*
X131000000Y-95000000D02*
G75*
G03*
X131500000Y-94500000I0J500000D01*
G01*
X153500000Y-88000000D02*
G75*
G03*
X153000000Y-87500000I-500000J0D01*
G01*
X125000000Y-98500000D02*
G75*
G03*
X125500000Y-99000000I500000J0D01*
G01*
X125500000Y-95000000D02*
G75*
G03*
X125000000Y-95500000I0J-500000D01*
G01*
X132000000Y-94000000D02*
X138000000Y-94000000D01*
X138000000Y-94000000D02*
G75*
G03*
X138500000Y-93500000I0J500000D01*
G01*
X166500000Y-99000000D02*
G75*
G03*
X167000000Y-98500000I0J500000D01*
G01*
X132000000Y-94000000D02*
G75*
G03*
X131500000Y-94500000I0J-500000D01*
G01*
X125500000Y-99000000D02*
X131000000Y-99000000D01*
X160500000Y-94500000D02*
G75*
G03*
X161000000Y-95000000I500000J0D01*
G01*
X153500000Y-93500000D02*
G75*
G03*
X154000000Y-94000000I500000J0D01*
G01*
X167000000Y-95500000D02*
X167000000Y-98500000D01*
X138500000Y-93500000D02*
X138500000Y-88000000D01*
X160000000Y-94000000D02*
X154000000Y-94000000D01*
X131500000Y-99500000D02*
G75*
G03*
X131000000Y-99000000I-500000J0D01*
G01*
X139000000Y-87500000D02*
G75*
G03*
X138500000Y-88000000I0J-500000D01*
G01*
X146000000Y-100000000D02*
X160000000Y-100000000D01*
X161000000Y-99000000D02*
G75*
G03*
X160500000Y-99500000I0J-500000D01*
G01*
X131500000Y-99500000D02*
G75*
G03*
X132000000Y-100000000I500000J0D01*
G01*
X131000000Y-95000000D02*
X125500000Y-95000000D01*
X125000000Y-95500000D02*
X125000000Y-98500000D01*
X160500000Y-94500000D02*
G75*
G03*
X160000000Y-94000000I-500000J0D01*
G01*
X153500000Y-93500000D02*
X153500000Y-88000000D01*
X161000000Y-95000000D02*
X166500000Y-95000000D01*
M02*
