M48
; DRILL file {KiCad 7.0.8} date Sun Nov  5 18:16:58 2023
; FORMAT={-:-/ absolute / inch / decimal}
; #@! TF.CreationDate,2023-11-05T18:16:58+01:00
; #@! TF.GenerationSoftware,Kicad,Pcbnew,7.0.8
; #@! TF.FileFunction,Plated,1,2,PTH
FMAT,2
INCH
; #@! TA.AperFunction,Plated,PTH,ViaDrill
T1C0.0079
; #@! TA.AperFunction,Plated,PTH,ViaDrill
T2C0.0118
; #@! TA.AperFunction,Plated,PTH,ComponentDrill
T3C0.0315
%
G90
G05
T1
X5.5354Y-3.9055
X5.5433Y-3.7323
X5.5433Y-3.7559
X5.5433Y-3.7795
X5.7008Y-3.8583
X5.7795Y-3.7303
X5.7795Y-3.7539
X5.8031Y-3.7303
X5.8031Y-3.7539
X5.811Y-3.874
X5.9606Y-3.7795
X6.1319Y-3.7953
X6.1319Y-3.8189
X6.1319Y-3.8425
X6.1555Y-3.7953
X6.1555Y-3.8189
X6.1555Y-3.8425
T2
X5.5906Y-3.9134
X5.622Y-3.9134
X5.6535Y-3.9134
X5.8425Y-3.9134
X5.874Y-3.9134
X5.9055Y-3.9134
T3
X5.7087Y-3.5925
X5.7874Y-3.5925
T0
M30
