%TF.GenerationSoftware,KiCad,Pcbnew,7.0.8*%
%TF.CreationDate,2023-11-05T18:16:56+01:00*%
%TF.ProjectId,battery-protection,62617474-6572-4792-9d70-726f74656374,2*%
%TF.SameCoordinates,Original*%
%TF.FileFunction,Legend,Bot*%
%TF.FilePolarity,Positive*%
%FSLAX46Y46*%
G04 Gerber Fmt 4.6, Leading zero omitted, Abs format (unit mm)*
G04 Created by KiCad (PCBNEW 7.0.8) date 2023-11-05 18:16:56*
%MOMM*%
%LPD*%
G01*
G04 APERTURE LIST*
%ADD10C,0.150000*%
%ADD11C,0.120000*%
G04 APERTURE END LIST*
D10*
X144431009Y-93392857D02*
X144478628Y-93535714D01*
X144478628Y-93535714D02*
X144526247Y-93583333D01*
X144526247Y-93583333D02*
X144621485Y-93630952D01*
X144621485Y-93630952D02*
X144764342Y-93630952D01*
X144764342Y-93630952D02*
X144859580Y-93583333D01*
X144859580Y-93583333D02*
X144907200Y-93535714D01*
X144907200Y-93535714D02*
X144954819Y-93440476D01*
X144954819Y-93440476D02*
X144954819Y-93059524D01*
X144954819Y-93059524D02*
X143954819Y-93059524D01*
X143954819Y-93059524D02*
X143954819Y-93392857D01*
X143954819Y-93392857D02*
X144002438Y-93488095D01*
X144002438Y-93488095D02*
X144050057Y-93535714D01*
X144050057Y-93535714D02*
X144145295Y-93583333D01*
X144145295Y-93583333D02*
X144240533Y-93583333D01*
X144240533Y-93583333D02*
X144335771Y-93535714D01*
X144335771Y-93535714D02*
X144383390Y-93488095D01*
X144383390Y-93488095D02*
X144431009Y-93392857D01*
X144431009Y-93392857D02*
X144431009Y-93059524D01*
X144669104Y-94011905D02*
X144669104Y-94488095D01*
X144954819Y-93916667D02*
X143954819Y-94250000D01*
X143954819Y-94250000D02*
X144954819Y-94583333D01*
X143954819Y-94773810D02*
X143954819Y-95345238D01*
X144954819Y-95059524D02*
X143954819Y-95059524D01*
X144573866Y-95678572D02*
X144573866Y-96440477D01*
X150619048Y-87954819D02*
X150619048Y-88669104D01*
X150619048Y-88669104D02*
X150666667Y-88811961D01*
X150666667Y-88811961D02*
X150761905Y-88907200D01*
X150761905Y-88907200D02*
X150904762Y-88954819D01*
X150904762Y-88954819D02*
X151000000Y-88954819D01*
X149666667Y-88954819D02*
X150142857Y-88954819D01*
X150142857Y-88954819D02*
X150142857Y-87954819D01*
X148761905Y-88859580D02*
X148809524Y-88907200D01*
X148809524Y-88907200D02*
X148952381Y-88954819D01*
X148952381Y-88954819D02*
X149047619Y-88954819D01*
X149047619Y-88954819D02*
X149190476Y-88907200D01*
X149190476Y-88907200D02*
X149285714Y-88811961D01*
X149285714Y-88811961D02*
X149333333Y-88716723D01*
X149333333Y-88716723D02*
X149380952Y-88526247D01*
X149380952Y-88526247D02*
X149380952Y-88383390D01*
X149380952Y-88383390D02*
X149333333Y-88192914D01*
X149333333Y-88192914D02*
X149285714Y-88097676D01*
X149285714Y-88097676D02*
X149190476Y-88002438D01*
X149190476Y-88002438D02*
X149047619Y-87954819D01*
X149047619Y-87954819D02*
X148952381Y-87954819D01*
X148952381Y-87954819D02*
X148809524Y-88002438D01*
X148809524Y-88002438D02*
X148761905Y-88050057D01*
X148047619Y-87954819D02*
X148047619Y-88669104D01*
X148047619Y-88669104D02*
X148095238Y-88811961D01*
X148095238Y-88811961D02*
X148190476Y-88907200D01*
X148190476Y-88907200D02*
X148333333Y-88954819D01*
X148333333Y-88954819D02*
X148428571Y-88954819D01*
X147095238Y-88954819D02*
X147571428Y-88954819D01*
X147571428Y-88954819D02*
X147571428Y-87954819D01*
X146190476Y-88859580D02*
X146238095Y-88907200D01*
X146238095Y-88907200D02*
X146380952Y-88954819D01*
X146380952Y-88954819D02*
X146476190Y-88954819D01*
X146476190Y-88954819D02*
X146619047Y-88907200D01*
X146619047Y-88907200D02*
X146714285Y-88811961D01*
X146714285Y-88811961D02*
X146761904Y-88716723D01*
X146761904Y-88716723D02*
X146809523Y-88526247D01*
X146809523Y-88526247D02*
X146809523Y-88383390D01*
X146809523Y-88383390D02*
X146761904Y-88192914D01*
X146761904Y-88192914D02*
X146714285Y-88097676D01*
X146714285Y-88097676D02*
X146619047Y-88002438D01*
X146619047Y-88002438D02*
X146476190Y-87954819D01*
X146476190Y-87954819D02*
X146380952Y-87954819D01*
X146380952Y-87954819D02*
X146238095Y-88002438D01*
X146238095Y-88002438D02*
X146190476Y-88050057D01*
X145476190Y-87954819D02*
X145476190Y-88669104D01*
X145476190Y-88669104D02*
X145523809Y-88811961D01*
X145523809Y-88811961D02*
X145619047Y-88907200D01*
X145619047Y-88907200D02*
X145761904Y-88954819D01*
X145761904Y-88954819D02*
X145857142Y-88954819D01*
X144523809Y-88954819D02*
X144999999Y-88954819D01*
X144999999Y-88954819D02*
X144999999Y-87954819D01*
X143619047Y-88859580D02*
X143666666Y-88907200D01*
X143666666Y-88907200D02*
X143809523Y-88954819D01*
X143809523Y-88954819D02*
X143904761Y-88954819D01*
X143904761Y-88954819D02*
X144047618Y-88907200D01*
X144047618Y-88907200D02*
X144142856Y-88811961D01*
X144142856Y-88811961D02*
X144190475Y-88716723D01*
X144190475Y-88716723D02*
X144238094Y-88526247D01*
X144238094Y-88526247D02*
X144238094Y-88383390D01*
X144238094Y-88383390D02*
X144190475Y-88192914D01*
X144190475Y-88192914D02*
X144142856Y-88097676D01*
X144142856Y-88097676D02*
X144047618Y-88002438D01*
X144047618Y-88002438D02*
X143904761Y-87954819D01*
X143904761Y-87954819D02*
X143809523Y-87954819D01*
X143809523Y-87954819D02*
X143666666Y-88002438D01*
X143666666Y-88002438D02*
X143619047Y-88050057D01*
X142904761Y-87954819D02*
X142904761Y-88669104D01*
X142904761Y-88669104D02*
X142952380Y-88811961D01*
X142952380Y-88811961D02*
X143047618Y-88907200D01*
X143047618Y-88907200D02*
X143190475Y-88954819D01*
X143190475Y-88954819D02*
X143285713Y-88954819D01*
X141952380Y-88954819D02*
X142428570Y-88954819D01*
X142428570Y-88954819D02*
X142428570Y-87954819D01*
X141047618Y-88859580D02*
X141095237Y-88907200D01*
X141095237Y-88907200D02*
X141238094Y-88954819D01*
X141238094Y-88954819D02*
X141333332Y-88954819D01*
X141333332Y-88954819D02*
X141476189Y-88907200D01*
X141476189Y-88907200D02*
X141571427Y-88811961D01*
X141571427Y-88811961D02*
X141619046Y-88716723D01*
X141619046Y-88716723D02*
X141666665Y-88526247D01*
X141666665Y-88526247D02*
X141666665Y-88383390D01*
X141666665Y-88383390D02*
X141619046Y-88192914D01*
X141619046Y-88192914D02*
X141571427Y-88097676D01*
X141571427Y-88097676D02*
X141476189Y-88002438D01*
X141476189Y-88002438D02*
X141333332Y-87954819D01*
X141333332Y-87954819D02*
X141238094Y-87954819D01*
X141238094Y-87954819D02*
X141095237Y-88002438D01*
X141095237Y-88002438D02*
X141047618Y-88050057D01*
X147531009Y-93392857D02*
X147578628Y-93535714D01*
X147578628Y-93535714D02*
X147626247Y-93583333D01*
X147626247Y-93583333D02*
X147721485Y-93630952D01*
X147721485Y-93630952D02*
X147864342Y-93630952D01*
X147864342Y-93630952D02*
X147959580Y-93583333D01*
X147959580Y-93583333D02*
X148007200Y-93535714D01*
X148007200Y-93535714D02*
X148054819Y-93440476D01*
X148054819Y-93440476D02*
X148054819Y-93059524D01*
X148054819Y-93059524D02*
X147054819Y-93059524D01*
X147054819Y-93059524D02*
X147054819Y-93392857D01*
X147054819Y-93392857D02*
X147102438Y-93488095D01*
X147102438Y-93488095D02*
X147150057Y-93535714D01*
X147150057Y-93535714D02*
X147245295Y-93583333D01*
X147245295Y-93583333D02*
X147340533Y-93583333D01*
X147340533Y-93583333D02*
X147435771Y-93535714D01*
X147435771Y-93535714D02*
X147483390Y-93488095D01*
X147483390Y-93488095D02*
X147531009Y-93392857D01*
X147531009Y-93392857D02*
X147531009Y-93059524D01*
X147769104Y-94011905D02*
X147769104Y-94488095D01*
X148054819Y-93916667D02*
X147054819Y-94250000D01*
X147054819Y-94250000D02*
X148054819Y-94583333D01*
X147054819Y-94773810D02*
X147054819Y-95345238D01*
X148054819Y-95059524D02*
X147054819Y-95059524D01*
X147673866Y-95678572D02*
X147673866Y-96440477D01*
X148054819Y-96059524D02*
X147292914Y-96059524D01*
D11*
%TO.C,J2*%
X148060000Y-90190000D02*
X148060000Y-91250000D01*
X147000000Y-90190000D02*
X148060000Y-90190000D01*
X146000000Y-90190000D02*
X143940000Y-90190000D01*
X146000000Y-90190000D02*
X146000000Y-92310000D01*
X143940000Y-90190000D02*
X143940000Y-92310000D01*
X146000000Y-92310000D02*
X143940000Y-92310000D01*
%TD*%
M02*
