%TF.GenerationSoftware,KiCad,Pcbnew,7.0.8*%
%TF.CreationDate,2023-11-05T18:16:59+01:00*%
%TF.ProjectId,battery-protection,62617474-6572-4792-9d70-726f74656374,2*%
%TF.SameCoordinates,Original*%
%TF.FileFunction,Drillmap*%
%TF.FilePolarity,Positive*%
%FSLAX45Y45*%
G04 Gerber Fmt 4.5, Leading zero omitted, Abs format (unit mm)*
G04 Created by KiCad (PCBNEW 7.0.8) date 2023-11-05 18:16:59*
%MOMM*%
%LPD*%
G01*
G04 APERTURE LIST*
%ADD10C,0.100000*%
%ADD11C,0.200000*%
G04 APERTURE END LIST*
D10*
X16000000Y-10000000D02*
G75*
G03*
X16050000Y-9950000I0J50000D01*
G01*
X16700000Y-9550000D02*
G75*
G03*
X16650000Y-9500000I-50000J0D01*
G01*
X13900000Y-8750000D02*
X15300000Y-8750000D01*
X16650000Y-9900000D02*
X16100000Y-9900000D01*
X14600000Y-10000000D02*
X13200000Y-10000000D01*
X13100000Y-9500000D02*
G75*
G03*
X13150000Y-9450000I0J50000D01*
G01*
X15350000Y-8800000D02*
G75*
G03*
X15300000Y-8750000I-50000J0D01*
G01*
X12500000Y-9850000D02*
G75*
G03*
X12550000Y-9900000I50000J0D01*
G01*
X12550000Y-9500000D02*
G75*
G03*
X12500000Y-9550000I0J-50000D01*
G01*
X13200000Y-9400000D02*
X13800000Y-9400000D01*
X13800000Y-9400000D02*
G75*
G03*
X13850000Y-9350000I0J50000D01*
G01*
X16650000Y-9900000D02*
G75*
G03*
X16700000Y-9850000I0J50000D01*
G01*
X13200000Y-9400000D02*
G75*
G03*
X13150000Y-9450000I0J-50000D01*
G01*
X12550000Y-9900000D02*
X13100000Y-9900000D01*
X16050000Y-9450000D02*
G75*
G03*
X16100000Y-9500000I50000J0D01*
G01*
X15350000Y-9350000D02*
G75*
G03*
X15400000Y-9400000I50000J0D01*
G01*
X16700000Y-9550000D02*
X16700000Y-9850000D01*
X13850000Y-9350000D02*
X13850000Y-8800000D01*
X16000000Y-9400000D02*
X15400000Y-9400000D01*
X13150000Y-9950000D02*
G75*
G03*
X13100000Y-9900000I-50000J0D01*
G01*
X13900000Y-8750000D02*
G75*
G03*
X13850000Y-8800000I0J-50000D01*
G01*
X14600000Y-10000000D02*
X16000000Y-10000000D01*
X16100000Y-9900000D02*
G75*
G03*
X16050000Y-9950000I0J-50000D01*
G01*
X13150000Y-9950000D02*
G75*
G03*
X13200000Y-10000000I50000J0D01*
G01*
X13100000Y-9500000D02*
X12550000Y-9500000D01*
X12500000Y-9550000D02*
X12500000Y-9850000D01*
X16050000Y-9450000D02*
G75*
G03*
X16000000Y-9400000I-50000J0D01*
G01*
X15350000Y-9350000D02*
X15350000Y-8800000D01*
X16100000Y-9500000D02*
X16650000Y-9500000D01*
D11*
X12755777Y-10316484D02*
X12755777Y-10116484D01*
X12755777Y-10116484D02*
X12803396Y-10116484D01*
X12803396Y-10116484D02*
X12831967Y-10126008D01*
X12831967Y-10126008D02*
X12851015Y-10145055D01*
X12851015Y-10145055D02*
X12860539Y-10164103D01*
X12860539Y-10164103D02*
X12870062Y-10202198D01*
X12870062Y-10202198D02*
X12870062Y-10230770D01*
X12870062Y-10230770D02*
X12860539Y-10268865D01*
X12860539Y-10268865D02*
X12851015Y-10287912D01*
X12851015Y-10287912D02*
X12831967Y-10306960D01*
X12831967Y-10306960D02*
X12803396Y-10316484D01*
X12803396Y-10316484D02*
X12755777Y-10316484D01*
X12955777Y-10316484D02*
X12955777Y-10183150D01*
X12955777Y-10221246D02*
X12965301Y-10202198D01*
X12965301Y-10202198D02*
X12974824Y-10192674D01*
X12974824Y-10192674D02*
X12993872Y-10183150D01*
X12993872Y-10183150D02*
X13012920Y-10183150D01*
X13079586Y-10316484D02*
X13079586Y-10183150D01*
X13079586Y-10116484D02*
X13070062Y-10126008D01*
X13070062Y-10126008D02*
X13079586Y-10135531D01*
X13079586Y-10135531D02*
X13089110Y-10126008D01*
X13089110Y-10126008D02*
X13079586Y-10116484D01*
X13079586Y-10116484D02*
X13079586Y-10135531D01*
X13203396Y-10316484D02*
X13184348Y-10306960D01*
X13184348Y-10306960D02*
X13174824Y-10287912D01*
X13174824Y-10287912D02*
X13174824Y-10116484D01*
X13308158Y-10316484D02*
X13289110Y-10306960D01*
X13289110Y-10306960D02*
X13279586Y-10287912D01*
X13279586Y-10287912D02*
X13279586Y-10116484D01*
X13536729Y-10316484D02*
X13536729Y-10116484D01*
X13536729Y-10116484D02*
X13603396Y-10259341D01*
X13603396Y-10259341D02*
X13670062Y-10116484D01*
X13670062Y-10116484D02*
X13670062Y-10316484D01*
X13851015Y-10316484D02*
X13851015Y-10211722D01*
X13851015Y-10211722D02*
X13841491Y-10192674D01*
X13841491Y-10192674D02*
X13822443Y-10183150D01*
X13822443Y-10183150D02*
X13784348Y-10183150D01*
X13784348Y-10183150D02*
X13765301Y-10192674D01*
X13851015Y-10306960D02*
X13831967Y-10316484D01*
X13831967Y-10316484D02*
X13784348Y-10316484D01*
X13784348Y-10316484D02*
X13765301Y-10306960D01*
X13765301Y-10306960D02*
X13755777Y-10287912D01*
X13755777Y-10287912D02*
X13755777Y-10268865D01*
X13755777Y-10268865D02*
X13765301Y-10249817D01*
X13765301Y-10249817D02*
X13784348Y-10240293D01*
X13784348Y-10240293D02*
X13831967Y-10240293D01*
X13831967Y-10240293D02*
X13851015Y-10230770D01*
X13946253Y-10183150D02*
X13946253Y-10383150D01*
X13946253Y-10192674D02*
X13965301Y-10183150D01*
X13965301Y-10183150D02*
X14003396Y-10183150D01*
X14003396Y-10183150D02*
X14022443Y-10192674D01*
X14022443Y-10192674D02*
X14031967Y-10202198D01*
X14031967Y-10202198D02*
X14041491Y-10221246D01*
X14041491Y-10221246D02*
X14041491Y-10278389D01*
X14041491Y-10278389D02*
X14031967Y-10297436D01*
X14031967Y-10297436D02*
X14022443Y-10306960D01*
X14022443Y-10306960D02*
X14003396Y-10316484D01*
X14003396Y-10316484D02*
X13965301Y-10316484D01*
X13965301Y-10316484D02*
X13946253Y-10306960D01*
X14127205Y-10297436D02*
X14136729Y-10306960D01*
X14136729Y-10306960D02*
X14127205Y-10316484D01*
X14127205Y-10316484D02*
X14117682Y-10306960D01*
X14117682Y-10306960D02*
X14127205Y-10297436D01*
X14127205Y-10297436D02*
X14127205Y-10316484D01*
X14127205Y-10192674D02*
X14136729Y-10202198D01*
X14136729Y-10202198D02*
X14127205Y-10211722D01*
X14127205Y-10211722D02*
X14117682Y-10202198D01*
X14117682Y-10202198D02*
X14127205Y-10192674D01*
X14127205Y-10192674D02*
X14127205Y-10211722D01*
M02*
